<mxfile host="app.diagrams.net" modified="2023-03-10T16:41:42.208Z" agent="5.0 (Windows)" etag="Su4W9EXic7mhvk579hoM" version="21.0.6" type="github">
  <diagram id="C5RBs43oDa-KdzZeNtuy" name="Page-1">
    <mxGraphModel dx="2607" dy="2591" grid="1" gridSize="10" guides="1" tooltips="1" connect="1" arrows="1" fold="1" page="1" pageScale="1" pageWidth="827" pageHeight="1169" math="0" shadow="0">
      <root>
        <mxCell id="WIyWlLk6GJQsqaUBKTNV-0" />
        <mxCell id="WIyWlLk6GJQsqaUBKTNV-1" parent="WIyWlLk6GJQsqaUBKTNV-0" />
        <mxCell id="hh2Qm9L342-FAs0Rvnvr-95" value="" style="group" vertex="1" connectable="0" parent="WIyWlLk6GJQsqaUBKTNV-1">
          <mxGeometry x="50" y="-790" width="1520" height="1650" as="geometry" />
        </mxCell>
        <mxCell id="hh2Qm9L342-FAs0Rvnvr-25" value="" style="rounded=0;whiteSpace=wrap;html=1;" vertex="1" parent="hh2Qm9L342-FAs0Rvnvr-95">
          <mxGeometry x="30" y="1001" width="200" height="249" as="geometry" />
        </mxCell>
        <mxCell id="hh2Qm9L342-FAs0Rvnvr-28" value="" style="rounded=0;whiteSpace=wrap;html=1;" vertex="1" parent="hh2Qm9L342-FAs0Rvnvr-95">
          <mxGeometry x="310" y="1001" width="200" height="249" as="geometry" />
        </mxCell>
        <mxCell id="hh2Qm9L342-FAs0Rvnvr-29" value="" style="rounded=0;whiteSpace=wrap;html=1;" vertex="1" parent="hh2Qm9L342-FAs0Rvnvr-95">
          <mxGeometry x="590" y="1001" width="200" height="249" as="geometry" />
        </mxCell>
        <mxCell id="hh2Qm9L342-FAs0Rvnvr-30" value="" style="rounded=0;whiteSpace=wrap;html=1;" vertex="1" parent="hh2Qm9L342-FAs0Rvnvr-95">
          <mxGeometry x="870" y="1001" width="200" height="249" as="geometry" />
        </mxCell>
        <mxCell id="hh2Qm9L342-FAs0Rvnvr-33" value="" style="shape=image;html=1;verticalAlign=top;verticalLabelPosition=bottom;labelBackgroundColor=#ffffff;imageAspect=0;aspect=fixed;image=https://cdn3.iconfinder.com/data/icons/cad-database-presentation-spreadsheet-vector-fil-2/512/19-128.png" vertex="1" parent="hh2Qm9L342-FAs0Rvnvr-95">
          <mxGeometry x="190" y="974" width="68" height="68" as="geometry" />
        </mxCell>
        <mxCell id="hh2Qm9L342-FAs0Rvnvr-34" value="" style="shape=image;html=1;verticalAlign=top;verticalLabelPosition=bottom;labelBackgroundColor=#ffffff;imageAspect=0;aspect=fixed;image=https://cdn3.iconfinder.com/data/icons/cad-database-presentation-spreadsheet-vector-fil-2/512/19-128.png" vertex="1" parent="hh2Qm9L342-FAs0Rvnvr-95">
          <mxGeometry x="474" y="975" width="68" height="68" as="geometry" />
        </mxCell>
        <mxCell id="hh2Qm9L342-FAs0Rvnvr-35" value="" style="shape=image;html=1;verticalAlign=top;verticalLabelPosition=bottom;labelBackgroundColor=#ffffff;imageAspect=0;aspect=fixed;image=https://cdn3.iconfinder.com/data/icons/cad-database-presentation-spreadsheet-vector-fil-2/512/19-128.png" vertex="1" parent="hh2Qm9L342-FAs0Rvnvr-95">
          <mxGeometry x="752" y="971" width="68" height="68" as="geometry" />
        </mxCell>
        <mxCell id="hh2Qm9L342-FAs0Rvnvr-36" value="" style="shape=image;html=1;verticalAlign=top;verticalLabelPosition=bottom;labelBackgroundColor=#ffffff;imageAspect=0;aspect=fixed;image=https://cdn3.iconfinder.com/data/icons/cad-database-presentation-spreadsheet-vector-fil-2/512/19-128.png" vertex="1" parent="hh2Qm9L342-FAs0Rvnvr-95">
          <mxGeometry x="1030" y="971" width="68" height="68" as="geometry" />
        </mxCell>
        <mxCell id="hh2Qm9L342-FAs0Rvnvr-44" value="" style="shape=mxgraph.arrows.arrow_up;html=1;verticalLabelPosition=bottom;verticalAlign=top;strokeWidth=2;strokeColor=#000000;fillColor=#232F3E;" vertex="1" parent="hh2Qm9L342-FAs0Rvnvr-95">
          <mxGeometry x="530" y="900" width="40" height="55" as="geometry" />
        </mxCell>
        <mxCell id="hh2Qm9L342-FAs0Rvnvr-45" value="" style="shape=mxgraph.arrows.arrow_up;html=1;verticalLabelPosition=bottom;verticalAlign=top;strokeWidth=2;strokeColor=#000000;fillColor=#232F3E;" vertex="1" parent="hh2Qm9L342-FAs0Rvnvr-95">
          <mxGeometry x="530" y="1250" width="40" height="55" as="geometry" />
        </mxCell>
        <mxCell id="hh2Qm9L342-FAs0Rvnvr-46" value="" style="shape=mxgraph.arrows.arrow_up;html=1;verticalLabelPosition=bottom;verticalAlign=top;strokeWidth=2;strokeColor=#000000;fillColor=#232F3E;" vertex="1" parent="hh2Qm9L342-FAs0Rvnvr-95">
          <mxGeometry x="533" y="268.86" width="40" height="55" as="geometry" />
        </mxCell>
        <mxCell id="hh2Qm9L342-FAs0Rvnvr-47" value="" style="shape=image;html=1;verticalAlign=top;verticalLabelPosition=bottom;labelBackgroundColor=#ffffff;imageAspect=0;aspect=fixed;image=https://cdn0.iconfinder.com/data/icons/long-shadow-web-icons/512/python-128.png" vertex="1" parent="hh2Qm9L342-FAs0Rvnvr-95">
          <mxGeometry x="484.26" y="1365" width="128" height="128" as="geometry" />
        </mxCell>
        <mxCell id="hh2Qm9L342-FAs0Rvnvr-49" value="&lt;font style=&quot;font-size: 27px;&quot;&gt;AWS Account UAT&lt;br&gt;&lt;/font&gt;" style="points=[[0,0],[0.25,0],[0.5,0],[0.75,0],[1,0],[1,0.25],[1,0.5],[1,0.75],[1,1],[0.75,1],[0.5,1],[0.25,1],[0,1],[0,0.75],[0,0.5],[0,0.25]];outlineConnect=0;gradientColor=none;html=1;whiteSpace=wrap;fontSize=12;fontStyle=0;container=1;pointerEvents=0;collapsible=0;recursiveResize=0;shape=mxgraph.aws4.group;grIcon=mxgraph.aws4.group_account;strokeColor=#CD2264;fillColor=none;verticalAlign=top;align=left;spacingLeft=30;fontColor=#CD2264;dashed=0;" vertex="1" parent="hh2Qm9L342-FAs0Rvnvr-95">
          <mxGeometry width="1340" height="267.86" as="geometry" />
        </mxCell>
        <mxCell id="hh2Qm9L342-FAs0Rvnvr-42" value="" style="aspect=fixed;html=1;points=[];align=center;image;fontSize=12;image=img/lib/azure2/other/Dashboard_Hub.svg;" vertex="1" parent="hh2Qm9L342-FAs0Rvnvr-49">
          <mxGeometry x="455.23999999999995" y="29.999999999999986" width="195.03" height="149.14" as="geometry" />
        </mxCell>
        <mxCell id="hh2Qm9L342-FAs0Rvnvr-54" value="" style="outlineConnect=0;dashed=0;verticalLabelPosition=bottom;verticalAlign=top;align=center;html=1;shape=mxgraph.aws3.checklist_security;fillColor=#759C3E;gradientColor=none;" vertex="1" parent="hh2Qm9L342-FAs0Rvnvr-49">
          <mxGeometry x="570" y="249" width="43" height="49" as="geometry" />
        </mxCell>
        <mxCell id="hh2Qm9L342-FAs0Rvnvr-83" value="&lt;font style=&quot;font-size: 26px;&quot;&gt;AWS Cloudtrail&lt;br&gt;&lt;/font&gt;" style="sketch=0;outlineConnect=0;fontColor=#232F3E;gradientColor=none;strokeColor=#ffffff;fillColor=#232F3E;dashed=0;verticalLabelPosition=middle;verticalAlign=bottom;align=center;html=1;whiteSpace=wrap;fontSize=10;fontStyle=1;spacing=3;shape=mxgraph.aws4.productIcon;prIcon=mxgraph.aws4.cloudtrail;" vertex="1" parent="hh2Qm9L342-FAs0Rvnvr-49">
          <mxGeometry x="1160" y="54" width="110" height="180" as="geometry" />
        </mxCell>
        <mxCell id="hh2Qm9L342-FAs0Rvnvr-50" value="&lt;font style=&quot;font-size: 27px;&quot;&gt;AWS Account Finops&lt;br&gt;&lt;/font&gt;" style="points=[[0,0],[0.25,0],[0.5,0],[0.75,0],[1,0],[1,0.25],[1,0.5],[1,0.75],[1,1],[0.75,1],[0.5,1],[0.25,1],[0,1],[0,0.75],[0,0.5],[0,0.25]];outlineConnect=0;gradientColor=none;html=1;whiteSpace=wrap;fontSize=12;fontStyle=0;container=1;pointerEvents=0;collapsible=0;recursiveResize=0;shape=mxgraph.aws4.group;grIcon=mxgraph.aws4.group_account;strokeColor=#CD2264;fillColor=none;verticalAlign=top;align=left;spacingLeft=30;fontColor=#CD2264;dashed=0;" vertex="1" parent="hh2Qm9L342-FAs0Rvnvr-95">
          <mxGeometry y="330" width="1340" height="1220" as="geometry" />
        </mxCell>
        <mxCell id="hh2Qm9L342-FAs0Rvnvr-38" value="&lt;font style=&quot;font-size: 26px;&quot;&gt;AWS Glue&lt;/font&gt;" style="sketch=0;outlineConnect=0;fontColor=#232F3E;gradientColor=none;strokeColor=#ffffff;fillColor=#232F3E;dashed=0;verticalLabelPosition=middle;verticalAlign=bottom;align=center;html=1;whiteSpace=wrap;fontSize=10;fontStyle=1;spacing=3;shape=mxgraph.aws4.productIcon;prIcon=mxgraph.aws4.glue;" vertex="1" parent="hh2Qm9L342-FAs0Rvnvr-50">
          <mxGeometry x="495.5" y="380" width="109" height="180" as="geometry" />
        </mxCell>
        <mxCell id="hh2Qm9L342-FAs0Rvnvr-56" value="&lt;font style=&quot;font-size: 26px;&quot;&gt;Amazon Athena&lt;/font&gt;" style="sketch=0;outlineConnect=0;fontColor=#232F3E;gradientColor=none;strokeColor=#ffffff;fillColor=#232F3E;dashed=0;verticalLabelPosition=middle;verticalAlign=bottom;align=center;html=1;whiteSpace=wrap;fontSize=10;fontStyle=1;spacing=3;shape=mxgraph.aws4.productIcon;prIcon=mxgraph.aws4.athena;" vertex="1" parent="hh2Qm9L342-FAs0Rvnvr-50">
          <mxGeometry x="495.5" y="90" width="114.5" height="180" as="geometry" />
        </mxCell>
        <mxCell id="hh2Qm9L342-FAs0Rvnvr-39" value="&lt;font style=&quot;font-size: 26px;&quot;&gt;AWS Lambda&lt;/font&gt;" style="sketch=0;outlineConnect=0;fontColor=#232F3E;gradientColor=none;strokeColor=#ffffff;fillColor=#232F3E;dashed=0;verticalLabelPosition=middle;verticalAlign=bottom;align=center;html=1;whiteSpace=wrap;fontSize=10;fontStyle=1;spacing=3;shape=mxgraph.aws4.productIcon;prIcon=mxgraph.aws4.lambda;" vertex="1" parent="hh2Qm9L342-FAs0Rvnvr-50">
          <mxGeometry x="1170" y="1020" width="110" height="180" as="geometry" />
        </mxCell>
        <mxCell id="hh2Qm9L342-FAs0Rvnvr-62" value="&lt;b&gt;QS Users&lt;/b&gt;" style="text;html=1;strokeColor=none;fillColor=none;align=center;verticalAlign=middle;whiteSpace=wrap;rounded=0;" vertex="1" parent="hh2Qm9L342-FAs0Rvnvr-50">
          <mxGeometry x="100" y="630" width="60" height="30" as="geometry" />
        </mxCell>
        <mxCell id="hh2Qm9L342-FAs0Rvnvr-63" value="&lt;b&gt;QS Dashboards &lt;/b&gt;" style="text;html=1;strokeColor=none;fillColor=none;align=center;verticalAlign=middle;whiteSpace=wrap;rounded=0;" vertex="1" parent="hh2Qm9L342-FAs0Rvnvr-50">
          <mxGeometry x="340" y="630" width="100" height="30" as="geometry" />
        </mxCell>
        <mxCell id="hh2Qm9L342-FAs0Rvnvr-66" value="&lt;b&gt;QS Analysis &lt;/b&gt;" style="text;html=1;strokeColor=none;fillColor=none;align=center;verticalAlign=middle;whiteSpace=wrap;rounded=0;" vertex="1" parent="hh2Qm9L342-FAs0Rvnvr-50">
          <mxGeometry x="640" y="630" width="90" height="30" as="geometry" />
        </mxCell>
        <mxCell id="hh2Qm9L342-FAs0Rvnvr-67" value="&lt;b&gt;QS dashboards views&lt;/b&gt;" style="text;html=1;strokeColor=none;fillColor=none;align=center;verticalAlign=middle;whiteSpace=wrap;rounded=0;" vertex="1" parent="hh2Qm9L342-FAs0Rvnvr-50">
          <mxGeometry x="890" y="630" width="130" height="30" as="geometry" />
        </mxCell>
        <mxCell id="hh2Qm9L342-FAs0Rvnvr-69" value="&lt;div&gt;analysis_deleted_by&lt;/div&gt;&lt;div&gt;analysis_id&lt;/div&gt;&lt;div&gt;analysis_deleted_date&lt;/div&gt;&lt;div&gt;analysis_name&lt;/div&gt;&lt;div&gt;analysis_created_time&lt;/div&gt;&lt;div&gt;user_id&lt;/div&gt;&lt;div&gt;username&lt;/div&gt;&lt;div&gt;user_creator&lt;/div&gt;&lt;div&gt;user_email&lt;/div&gt;&lt;div&gt;user_role&lt;/div&gt;&lt;div&gt;user_active&lt;/div&gt;&lt;div&gt;user_arn&lt;/div&gt;&lt;div&gt;user_last_activity&lt;/div&gt;" style="text;html=1;strokeColor=none;fillColor=none;align=left;verticalAlign=middle;whiteSpace=wrap;rounded=0;" vertex="1" parent="hh2Qm9L342-FAs0Rvnvr-50">
          <mxGeometry x="608" y="709" width="100" height="200" as="geometry" />
        </mxCell>
        <mxCell id="hh2Qm9L342-FAs0Rvnvr-76" value="&lt;div&gt;viewer_username&lt;/div&gt;&lt;div&gt;viewer_dateTime&lt;/div&gt;&lt;div&gt;viewer_dashboard_id&lt;/div&gt;&lt;div&gt;viewer_analysis_id&lt;/div&gt;" style="text;whiteSpace=wrap;html=1;" vertex="1" parent="hh2Qm9L342-FAs0Rvnvr-50">
          <mxGeometry x="882" y="713" width="130" height="80" as="geometry" />
        </mxCell>
        <mxCell id="hh2Qm9L342-FAs0Rvnvr-53" value="&lt;b&gt;&lt;font style=&quot;font-size: 27px;&quot;&gt;IAM POLICY&lt;/font&gt;&lt;/b&gt;" style="text;html=1;align=center;verticalAlign=middle;resizable=0;points=[];autosize=1;strokeColor=none;fillColor=none;" vertex="1" parent="hh2Qm9L342-FAs0Rvnvr-95">
          <mxGeometry x="617" y="263" width="180" height="50" as="geometry" />
        </mxCell>
        <mxCell id="hh2Qm9L342-FAs0Rvnvr-58" value="" style="shape=flexArrow;endArrow=classic;html=1;rounded=0;labelBackgroundColor=#232F3E;labelBorderColor=#000000;fillColor=#232F3E;" edge="1" parent="hh2Qm9L342-FAs0Rvnvr-95" source="hh2Qm9L342-FAs0Rvnvr-47">
          <mxGeometry width="50" height="50" relative="1" as="geometry">
            <mxPoint x="550" y="1560" as="sourcePoint" />
            <mxPoint x="1280" y="130" as="targetPoint" />
            <Array as="points">
              <mxPoint x="550" y="1590" />
              <mxPoint x="1380" y="1590" />
              <mxPoint x="1380" y="130" />
            </Array>
          </mxGeometry>
        </mxCell>
        <mxCell id="hh2Qm9L342-FAs0Rvnvr-59" value="&lt;b&gt;&lt;font style=&quot;font-size: 27px;&quot;&gt;IAM ROLE&lt;br&gt;&lt;/font&gt;&lt;/b&gt;" style="text;html=1;align=center;verticalAlign=middle;resizable=0;points=[];autosize=1;strokeColor=none;fillColor=none;" vertex="1" parent="hh2Qm9L342-FAs0Rvnvr-95">
          <mxGeometry x="1360" y="52" width="160" height="50" as="geometry" />
        </mxCell>
        <mxCell id="hh2Qm9L342-FAs0Rvnvr-72" value="&lt;div&gt;user_id&lt;/div&gt;&lt;div&gt;username&lt;/div&gt;&lt;div&gt;user_email&lt;/div&gt;&lt;div&gt;user_role&lt;/div&gt;&lt;div&gt;user_active&lt;/div&gt;&lt;div&gt;user_arn&lt;/div&gt;&lt;div&gt;user_last_activity&lt;/div&gt;" style="text;whiteSpace=wrap;html=1;" vertex="1" parent="hh2Qm9L342-FAs0Rvnvr-95">
          <mxGeometry x="43" y="1041" width="110" height="120" as="geometry" />
        </mxCell>
        <mxCell id="hh2Qm9L342-FAs0Rvnvr-73" value="&lt;div&gt;dashboard_deleted_by&lt;/div&gt;&lt;div&gt;dashboard_id&lt;/div&gt;&lt;div&gt;dashboard_deleted_date&lt;/div&gt;&lt;div&gt;dashboard_name&lt;/div&gt;&lt;div&gt;dashboard_created_time&lt;/div&gt;&lt;div&gt;dashboard_last_published_time&lt;/div&gt;&lt;div&gt;user_id,username&lt;/div&gt;&lt;div&gt;user_creator&lt;/div&gt;&lt;div&gt;user_email&lt;/div&gt;&lt;div&gt;user_role&lt;/div&gt;&lt;div&gt;user_active&lt;/div&gt;&lt;div&gt;user_arn&lt;/div&gt;&lt;div&gt;user_last_activity&lt;/div&gt;" style="text;whiteSpace=wrap;html=1;" vertex="1" parent="hh2Qm9L342-FAs0Rvnvr-95">
          <mxGeometry x="320" y="1040" width="560" height="40" as="geometry" />
        </mxCell>
        <mxCell id="hh2Qm9L342-FAs0Rvnvr-81" value="&lt;b&gt;&lt;font style=&quot;font-size: 27px;&quot;&gt;&amp;nbsp;API CALL&amp;nbsp; TO QS &amp;amp; CloudTrail &lt;br&gt;&lt;/font&gt;&lt;/b&gt;" style="text;html=1;align=center;verticalAlign=middle;resizable=0;points=[];autosize=1;strokeColor=none;fillColor=none;" vertex="1" parent="hh2Qm9L342-FAs0Rvnvr-95">
          <mxGeometry x="730" y="1600" width="420" height="50" as="geometry" />
        </mxCell>
        <mxCell id="hh2Qm9L342-FAs0Rvnvr-84" value="" style="shape=mxgraph.arrows.arrow_up;html=1;verticalLabelPosition=bottom;verticalAlign=top;strokeWidth=2;strokeColor=#000000;fillColor=#232F3E;" vertex="1" parent="hh2Qm9L342-FAs0Rvnvr-95">
          <mxGeometry x="538.26" y="634" width="40" height="55" as="geometry" />
        </mxCell>
        <mxCell id="hh2Qm9L342-FAs0Rvnvr-60" value="" style="outlineConnect=0;dashed=0;verticalLabelPosition=bottom;verticalAlign=top;align=center;html=1;shape=mxgraph.aws3.checklist_security;fillColor=#759C3E;gradientColor=none;" vertex="1" parent="hh2Qm9L342-FAs0Rvnvr-95">
          <mxGeometry x="1320" y="52" width="50" height="60" as="geometry" />
        </mxCell>
        <mxCell id="hh2Qm9L342-FAs0Rvnvr-90" value="&lt;font style=&quot;font-size: 26px;&quot;&gt;Amazon QuickSight&lt;/font&gt;" style="sketch=0;outlineConnect=0;fontColor=#232F3E;gradientColor=none;strokeColor=#ffffff;fillColor=#232F3E;dashed=0;verticalLabelPosition=middle;verticalAlign=bottom;align=center;html=1;whiteSpace=wrap;fontSize=10;fontStyle=1;spacing=3;shape=mxgraph.aws4.productIcon;prIcon=mxgraph.aws4.quicksight;" vertex="1" parent="hh2Qm9L342-FAs0Rvnvr-95">
          <mxGeometry x="995" y="54" width="110" height="180.86" as="geometry" />
        </mxCell>
        <mxCell id="hh2Qm9L342-FAs0Rvnvr-32" value="&lt;font style=&quot;font-size: 25px;&quot;&gt;Amazon S3&lt;/font&gt;" style="sketch=0;outlineConnect=0;fontColor=#232F3E;gradientColor=none;strokeColor=#ffffff;fillColor=#232F3E;dashed=0;verticalLabelPosition=middle;verticalAlign=bottom;align=center;html=1;whiteSpace=wrap;fontSize=10;fontStyle=1;spacing=3;shape=mxgraph.aws4.productIcon;prIcon=mxgraph.aws4.s3;" vertex="1" parent="hh2Qm9L342-FAs0Rvnvr-95">
          <mxGeometry x="1162" y="1057" width="110" height="170" as="geometry" />
        </mxCell>
        <mxCell id="hh2Qm9L342-FAs0Rvnvr-99" value="" style="endArrow=none;dashed=1;html=1;dashPattern=1 3;strokeWidth=2;rounded=0;" edge="1" parent="hh2Qm9L342-FAs0Rvnvr-95">
          <mxGeometry width="50" height="50" relative="1" as="geometry">
            <mxPoint x="550" y="1280" as="sourcePoint" />
            <mxPoint x="549.52" y="961" as="targetPoint" />
          </mxGeometry>
        </mxCell>
        <mxCell id="hh2Qm9L342-FAs0Rvnvr-100" value="" style="endArrow=none;dashed=1;html=1;dashPattern=1 3;strokeWidth=2;rounded=0;" edge="1" parent="hh2Qm9L342-FAs0Rvnvr-95">
          <mxGeometry width="50" height="50" relative="1" as="geometry">
            <mxPoint x="830" y="1515" as="sourcePoint" />
            <mxPoint x="830" y="955" as="targetPoint" />
          </mxGeometry>
        </mxCell>
        <mxCell id="hh2Qm9L342-FAs0Rvnvr-101" value="&lt;div&gt;quicksight.list_users( )&lt;/div&gt;&lt;div&gt;&lt;br&gt;&lt;/div&gt;&lt;div&gt;cloudtrail_client.lookup_events ( )&lt;br&gt;&lt;/div&gt;" style="text;whiteSpace=wrap;html=1;" vertex="1" parent="hh2Qm9L342-FAs0Rvnvr-95">
          <mxGeometry x="30" y="1300" width="230" height="60" as="geometry" />
        </mxCell>
        <mxCell id="hh2Qm9L342-FAs0Rvnvr-102" value="&lt;div&gt;quicksight.list_users( )&lt;/div&gt;&lt;div&gt;&lt;br&gt;&lt;/div&gt;&lt;div&gt;cloudtrail_client.lookup_events ( )&lt;br&gt;&lt;/div&gt;" style="text;whiteSpace=wrap;html=1;" vertex="1" parent="hh2Qm9L342-FAs0Rvnvr-95">
          <mxGeometry x="310" y="1303" width="230" height="60" as="geometry" />
        </mxCell>
        <mxCell id="hh2Qm9L342-FAs0Rvnvr-96" value="" style="endArrow=none;dashed=1;html=1;dashPattern=1 3;strokeWidth=2;rounded=0;" edge="1" parent="WIyWlLk6GJQsqaUBKTNV-1">
          <mxGeometry width="50" height="50" relative="1" as="geometry">
            <mxPoint x="330" y="730" as="sourcePoint" />
            <mxPoint x="330" y="240" as="targetPoint" />
          </mxGeometry>
        </mxCell>
      </root>
    </mxGraphModel>
  </diagram>
</mxfile>
